<svg width="427" height="415" viewBox="0 0 427 415" fill="none" xmlns="http://www.w3.org/2000/svg">
<path d="M320 321C260.906 321 213 273.094 213 214H320V321Z" fill="#2D3652"/>
<path d="M213 214H106.5C47.6822 214 0 261.906 0 321H106.5C165.318 321 213 273.094 213 214Z" fill="#F0F1F1"/>
<path d="M106 267H53.2679C23.8491 267 0 291.177 0 321H52.7321C82.1519 321 106 296.823 106 267Z" fill="#2D3652"/>
<path d="M0 321H106.5C165.318 321 213 368.906 213 428H106.5C47.6822 428 0 380.094 0 321Z" fill="#2D3652"/>
<path d="M213 534V427.5C213 368.682 260.906 321 320 321V427.5C320 486.318 272.094 534 213 534Z" fill="#49A3B3"/>
<path d="M267 427V374.267C267 344.849 290.729 321 320 321V373.733C320 403.151 296.271 427 267 427Z" fill="#2D3652"/>
<path d="M182 320.5C182 302.55 196.326 288 214 288C231.674 288 246 302.55 246 320.5C246 338.45 231.674 353 214 353C196.326 353 182 338.45 182 320.5Z" fill="#FF743C"/>
<path d="M198 321C198 312.164 205.164 305 214 305C222.836 305 230 312.164 230 321C230 329.836 222.836 337 214 337C205.164 337 198 329.836 198 321Z" fill="#FFC700"/>
<path d="M320 160.5C320 130.953 296.047 107 266.5 107C236.953 107 213 130.953 213 160.5C213 190.047 236.953 214 266.5 214H320V160.5Z" fill="#FF743C"/>
<path d="M320 185.999C320 170.536 307.688 158 292.499 158C277.312 158 265 170.536 265 185.999C265 201.464 277.312 214 292.499 214H320V185.999Z" fill="#FFC700"/>
<path d="M320 107C320 47.906 367.906 0 427 0V107H320Z" fill="#FF743C"/>
<path d="M427 321C367.906 321 320 273.094 320 214H427V321Z" fill="#F0F1F1"/>
<path d="M372 214C372 184.176 396.624 160 427 160V214H372Z" fill="#D5E155"/>
<path d="M373.5 321C403.047 321 427 344.729 427 374C427 403.271 403.047 427 373.5 427C343.953 427 320 403.271 320 374C320 344.729 343.953 321 373.5 321Z" fill="#FF743C"/>
<path d="M380 343C394.359 343 406 354.641 406 369C406 383.359 394.359 395 380 395C365.641 395 354 383.359 354 369C354 354.641 365.641 343 380 343Z" fill="#2D3652"/>
</svg>
