<svg width="40" height="27" viewBox="0 0 40 27" fill="none" xmlns="http://www.w3.org/2000/svg">
<path d="M8.87525 26.3658C7.67825 26.3658 6.60317 26.266 5.65 26.0665C4.69683 25.867 3.63283 25.601 2.458 25.2685C1.68217 25.0468 1.16125 24.9249 0.89525 24.9028L1.1945 18.7515H3.88775L4.61925 23.0407C4.90742 23.3511 5.41725 23.6282 6.14875 23.872C6.90242 24.1158 7.75583 24.2377 8.709 24.2377C10.1942 24.2377 11.3025 23.9163 12.034 23.2735C12.7877 22.6085 13.1645 21.6886 13.1645 20.5137C13.1645 19.7379 12.9428 19.0729 12.4995 18.5187C12.0562 17.9424 11.4466 17.4326 10.6708 16.9892C9.89492 16.5237 8.83092 15.9917 7.47875 15.3932C5.63892 14.5509 4.10942 13.5534 2.89025 12.4007C1.69325 11.2259 1.09475 9.641 1.09475 7.646C1.09475 6.40467 1.41617 5.28525 2.059 4.28775C2.70183 3.26808 3.655 2.47008 4.9185 1.89375C6.20417 1.29525 7.76692 0.995999 9.60675 0.995999C10.6929 0.995999 11.6461 1.07358 12.4663 1.22875C13.3086 1.38392 14.2174 1.5945 15.1928 1.8605C15.7691 2.01567 16.2013 2.11542 16.4895 2.15975L16.29 7.9785H13.63L12.9318 3.88875C12.7323 3.68925 12.3333 3.50083 11.7348 3.3235C11.1363 3.124 10.4713 3.02425 9.73975 3.02425C8.40975 3.02425 7.40117 3.33458 6.714 3.95525C6.049 4.55375 5.7165 5.36283 5.7165 6.3825C5.7165 7.20267 5.96033 7.912 6.448 8.5105C6.95783 9.109 7.56742 9.61883 8.27675 10.04C8.98608 10.439 10.1055 11.0153 11.635 11.769C12.8763 12.3675 13.9403 12.9549 14.827 13.5312C15.7137 14.1076 16.4784 14.8612 17.1213 15.7922C17.7641 16.7011 18.0855 17.7762 18.0855 19.0175C18.0855 20.2367 17.7752 21.4004 17.1545 22.5087C16.556 23.6171 15.5585 24.537 14.162 25.2685C12.7877 26 11.0254 26.3658 8.87525 26.3658ZM34.0302 3.15725L25.3852 3.62275L23.5897 8.1115L21.1292 7.779L21.8939 1.22875H38.7517L39.5497 2.991L27.5132 21.6775L25.2189 23.9717L35.4599 23.3067L37.3219 18.153L39.8489 18.6517L39.0842 26H20.7967L19.7659 24.2377L32.0684 5.4515L34.0302 3.15725Z" fill="black"/>
</svg>
